<svg width="159" height="48" viewBox="0 0 159 48" fill="none" xmlns="http://www.w3.org/2000/svg">
<path d="M26.9441 36.6738V10.0603C26.9441 8.77349 27.646 8.24707 28.9328 8.07159L32.5008 7.3697C33.7876 7.13574 34.5479 8.07159 34.5479 9.3584V36.6153C34.5479 37.9021 33.7876 38.604 32.5592 38.604H28.9913C27.646 38.6625 26.9441 37.9606 26.9441 36.6738Z" fill="#4A4B4C"/>
<path d="M60.2629 18.5422V36.6744C60.2629 37.9612 59.561 38.6631 58.2742 38.6631H56.11C54.8232 38.6631 54.1213 37.9027 54.1213 36.6744V35.7971C52.8345 37.7858 50.7288 39.248 47.5703 39.248C42.1306 39.248 38.5042 35.6801 38.5042 30.2989V18.5422C38.5042 17.2554 39.2645 16.5535 40.5513 16.5535H44.1193C45.4061 16.5535 46.1665 17.3139 46.1665 18.5422V29.1876C46.1665 31.2932 47.3948 32.7555 49.3835 32.7555C51.4307 32.7555 52.659 31.2932 52.659 29.1291V18.5422C52.659 17.2554 53.3609 16.5535 54.6477 16.5535H58.2742C59.561 16.5535 60.2629 17.2554 60.2629 18.5422Z" fill="#4A4B4C"/>
<path d="M63.6926 36.147C62.6983 35.2112 62.4643 34.3923 63.5172 33.2225L64.57 31.9357C65.5644 30.7073 66.5587 31.0583 67.4946 31.7017C68.9568 32.813 70.9455 33.6319 72.9342 33.6319C74.221 33.6319 74.9814 33.164 74.9814 32.3451C74.9814 31.2923 73.6361 30.8243 72.2323 30.3564C68.3134 29.1866 63.9266 27.7828 63.9266 23.1035C63.9266 18.8336 67.4361 16.2015 72.9342 16.2015C76.0928 16.2015 79.4852 17.3129 81.006 18.5997C82.0004 19.477 82.1758 20.2959 81.123 21.5827L80.1871 22.6941C79.4268 23.6299 78.3739 23.6299 77.3796 23.045C76.1512 22.1676 74.7475 21.5827 72.9927 21.5827C71.7644 21.5827 71.0625 22.0507 71.0625 22.7525C71.0625 23.8639 73.0512 24.2148 75.8588 25.2092C79.4267 26.613 82.1173 28.4262 82.1173 32.2281C82.1173 36.6734 78.3154 39.3055 72.8757 39.3055C69.0153 39.3055 65.4474 37.7848 63.6926 36.147Z" fill="#4A4B4C"/>
<path d="M107.949 9.41735V36.6742C107.949 37.961 107.247 38.6629 105.961 38.6629H103.621C102.334 38.6629 101.574 37.9026 101.574 36.6742V36.4988C99.8775 38.195 97.5964 39.2478 94.7303 39.2478C88.4133 39.2478 83.7925 34.2176 83.7925 27.7251C83.7925 21.2326 88.4133 16.2023 94.7303 16.2023C96.836 16.2023 98.7077 16.7872 100.287 17.7231V10.1192C100.287 8.83244 100.989 8.30602 102.276 8.13055L105.844 7.48715C107.247 7.25318 107.949 8.13055 107.949 9.41735ZM100.696 27.7251C100.696 24.6835 98.6492 22.6948 96.0171 22.6948C93.268 22.6948 91.2793 24.9175 91.2793 27.7251C91.2793 30.5912 93.268 32.7553 96.0171 32.7553C98.6492 32.7553 100.696 30.7666 100.696 27.7251Z" fill="#4A4B4C"/>
<path d="M111.38 4.56231C111.38 1.9887 113.427 0 115.942 0C118.516 0 120.504 1.9887 120.504 4.56231C120.504 7.07743 118.516 9.12462 115.942 9.12462C113.427 9.12462 111.38 7.07743 111.38 4.56231ZM112.14 36.6739V18.5417C112.14 17.2549 112.842 16.553 114.187 16.553H117.755C119.042 16.553 119.803 17.3134 119.803 18.5417V36.6739C119.803 37.9608 119.042 38.6626 117.755 38.6626H114.187C112.842 38.6626 112.14 37.9608 112.14 36.6739Z" fill="#4A4B4C"/>
<path d="M146.103 25.7356V36.6734C146.103 37.9602 145.342 38.6621 144.114 38.6621H140.546C139.259 38.6621 138.557 37.9018 138.557 36.6734V26.3205C138.557 24.0978 137.271 22.6356 135.106 22.6356C132.942 22.6356 131.538 24.0978 131.538 26.3205V36.6734C131.538 37.9602 130.837 38.6621 129.55 38.6621H125.923C124.636 38.6621 123.935 37.9018 123.935 36.6734V18.5412C123.935 17.2544 124.636 16.5525 125.923 16.5525H128.263C129.55 16.5525 130.252 17.3129 130.252 18.5412V19.711C131.714 17.6638 133.878 16.2015 137.095 16.2015C142.301 16.2015 146.103 19.8865 146.103 25.7356Z" fill="#4A4B4C"/>
<path d="M149.416 34.6263C149.416 32.1112 151.405 30.064 153.978 30.064C156.493 30.064 158.541 32.1112 158.541 34.6263C158.541 37.1414 156.493 39.1886 153.978 39.1886C151.463 39.1886 149.416 37.1414 149.416 34.6263Z" fill="#00E169"/>
<path d="M0 46.032V18.7751C0 17.4883 0.701894 16.7864 1.9887 16.7864H4.32835C5.61515 16.7864 6.37554 17.5468 6.37554 18.7751V18.9506C8.07178 17.2544 10.3529 16.2015 13.219 16.2015C19.5361 16.2015 24.1569 21.2318 24.1569 27.7243C24.1569 34.2168 19.5361 39.2471 13.219 39.2471C11.1133 39.2471 9.24161 38.6621 7.66234 37.7263V45.3301C7.66234 46.6169 6.96045 47.1434 5.67364 47.3188L2.10568 47.9622C0.701894 48.1962 0 47.3188 0 46.032ZM7.25291 27.7243C7.25291 30.7658 9.3001 32.7545 11.9322 32.7545C14.6813 32.7545 16.67 30.5319 16.67 27.7243C16.67 24.8582 14.6813 22.6941 11.9322 22.6941C9.24161 22.6941 7.25291 24.6243 7.25291 27.7243Z" fill="#4A4B4C"/>
</svg>
